<?xml version="1.0" standalone="no"?><!DOCTYPE svg PUBLIC "-//W3C//DTD SVG 1.1//EN" "http://www.w3.org/Graphics/SVG/1.1/DTD/svg11.dtd"><svg t="1628660810096" class="icon" viewBox="0 0 1024 1024" version="1.1" xmlns="http://www.w3.org/2000/svg" p-id="2007" xmlns:xlink="http://www.w3.org/1999/xlink" width="200" height="200"><defs><style type="text/css"></style></defs><path d="M942.846169 216.067434l-192.255183-204.79913A38.143838 38.143838 0 0 0 722.943103 0.004352h-614.397388a40.191829 40.191829 0 0 0-38.911835 41.471824v941.052A40.191829 40.191829 0 0 0 108.545715 1024h806.90857a40.191829 40.191829 0 0 0 38.911835-41.471824V245.507309a42.751818 42.751818 0 0 0-11.519951-29.439875z m-593.917476 454.398069a125.951465 125.951465 0 0 1-75.26368 19.455917 125.695466 125.695466 0 0 1-73.215689-18.687921 88.319625 88.319625 0 0 1-34.815852-70.911698H204.801306a62.207736 62.207736 0 0 0 21.503908 43.263816 78.591666 78.591666 0 0 0 47.871797 11.77595 94.719597 94.719597 0 0 0 46.079804-9.983958 29.439875 29.439875 0 0 0 17.151927-26.879886 37.375841 37.375841 0 0 0-24.319897-33.535857 424.190197 424.190197 0 0 0-51.199782-17.407926 476.157976 476.157976 0 0 1-58.623751-20.991911 56.831758 56.831758 0 0 1-29.439875-51.199782 60.415743 60.415743 0 0 1 28.159881-52.991775 117.503501 117.503501 0 0 1 67.839711-18.175923 111.615526 111.615526 0 0 1 69.887703 18.94392 80.127659 80.127659 0 0 1 30.463871 61.695737h-38.911835a56.57576 56.57576 0 0 0-19.967915-35.839847 71.423696 71.423696 0 0 0-43.775814-11.263952 79.871661 79.871661 0 0 0-38.911835 7.679967 28.927877 28.927877 0 0 0-16.38393 27.903881A29.951873 29.951873 0 0 0 230.401197 520.194141a275.19883 275.19883 0 0 0 44.54381 15.871933 380.926381 380.926381 0 0 1 67.071715 25.599891 61.951737 61.951737 0 0 1 33.02386 55.295765 63.48773 63.48773 0 0 1-26.111889 53.503773z m179.199238 14.335939h-47.871796l-91.647611-255.998912h42.239821L503.552036 640.001632l72.447692-212.223098h43.519815zM870.398477 657.409558a149.759364 149.759364 0 0 1-46.335803 23.807899 201.983142 201.983142 0 0 1-61.18374 8.703963 119.807491 119.807491 0 0 1-94.975597-38.655836 135.935422 135.935422 0 0 1-31.743865-93.439603 139.519407 139.519407 0 0 1 31.743865-94.463598 110.335531 110.335531 0 0 1 89.855619-39.423833 123.135477 123.135477 0 0 1 76.799673 22.015907 97.535585 97.535585 0 0 1 34.303854 64.255727H829.438651a60.927741 60.927741 0 0 0-23.5519-38.655836 81.407654 81.407654 0 0 0-48.895792-13.311944 73.215689 73.215689 0 0 0-59.135749 25.599892 108.543539 108.543539 0 0 0-23.295901 74.239684 105.471552 105.471552 0 0 0 21.24791 71.167698 87.03963 87.03963 0 0 0 70.6557 26.879885 141.823397 141.823397 0 0 0 35.327849-4.60798 108.031541 108.031541 0 0 0 28.671879-11.519951v-57.087757h-70.6557v-33.279859H870.398477z" fill="#2B4255" p-id="2008"></path></svg>